# xmcd CD database file
#
# Track frame offsets:
#	150
#	20485
#	65720
#	104748
#	144169
#	189044
#	219096
#	264804
#	297732
#
# Disc length: 4278 seconds
#
# Revision: 4
# Processed by: cddbd v1.5.2PL0 Copyright (c) Steve Scherf et al.
# Submitted via: CDex 1.81
#
DISCID=8110b409
DTITLE=Manhattan Jazz Quintet - Super Collection [Disc 1]
DYEAR=2011
DGENRE=Jazz
TTITLE0=My Funny Valentine
TTITLE1=Summertime
TTITLE2=Blues March
TTITLE3=Caravan
TTITLE4=Whata Wondeful World
TTITLE5=Sister Sadie
TTITLE6=Les Liaisons Dangereuses
TTITLE7=A Day In The Life
TTITLE8=Autumn in Newyork
EXTD=YEAR: 2011
EXTT0=
EXTT1=
EXTT2=
EXTT3=
EXTT4=
EXTT5=
EXTT6=
EXTT7=
EXTT8=
PLAYORDER=
